<?xml version="1.0" encoding="utf-8"?>
<!-- Generator: Adobe Illustrator 23.0.3, SVG Export Plug-In . SVG Version: 6.00 Build 0)  -->
<svg version="1.1" id="Layer_1" xmlns="http://www.w3.org/2000/svg" xmlns:xlink="http://www.w3.org/1999/xlink" x="0px" y="0px"
	 viewBox="0 0 500 500" style="enable-background:new 0 0 500 500;" xml:space="preserve">
<style type="text/css">
	.st0{fill:none;stroke:#000000;stroke-width:10;stroke-miterlimit:10;}
	.st1{fill:#FFFFFF;stroke:#000000;stroke-width:10;stroke-miterlimit:10;}
</style>
<g>
	<path id="ciricle" class="st0" d="M475.5,251c-0.4,124.5-101,225.5-225.5,225.5S24.5,375.5,24.5,251S125.5,24.8,250,25.5
		C386.7,26.2,475.9,126.5,475.5,251z"/>
	<path id="letter" class="st1" d="M375.7,135.9l-44.3,211.6c-1.1,5-8.1,5.4-9.7,0.5l-37.8-115.5c-0.3-0.8-0.3-1.7-0.2-2.6l18.6-92.1
		c0.6-3.1-1.7-6-4.9-6h-16.8c-2.4,0-4.4,1.7-4.9,4l-5.3,25.4c-1.1,5-8.1,5.4-9.7,0.5l-9-27.5c-0.7-2.1-2.6-3.5-4.8-3.5h-44.3
		c-3.5,0-5.9,3.4-4.7,6.7l48.1,137c0.3,0.9,0.4,1.8,0.2,2.7l-14.8,70.3c-1.1,5-8.1,5.4-9.7,0.5l-70-213.7c-0.7-2.1-2.6-3.5-4.8-3.5
		h-44.3c-3.5,0-5.9,3.4-4.7,6.7l90.5,258c0.7,2,2.6,3.4,4.7,3.4h52.3c2.4,0,4.5-1.7,4.9-4l10.2-50.4c1-5,8-5.5,9.7-0.7l18.2,51.7
		c0.7,2,2.6,3.4,4.7,3.4h52.3c2.4,0,4.4-1.7,4.9-4l52-257c0.6-3.1-1.7-6-4.9-6h-16.8C378.2,131.9,376.2,133.6,375.7,135.9z"/>
</g>
</svg>
